<svg width="20" height="22" viewBox="0 0 20 22" fill="none" xmlns="http://www.w3.org/2000/svg">
<path fill-rule="evenodd" clip-rule="evenodd" d="M7.8196 2.03557C8.03863 1.04156 8.95457 0.333496 10.0003 0.333496C11.0461 0.333496 11.962 1.04156 12.181 2.03557C15.1706 2.9232 17.3695 5.58832 17.3695 8.784C17.3695 8.98248 17.3693 9.18021 17.369 9.37755L17.369 9.38103C17.3685 9.77636 17.3681 10.1701 17.3695 10.5648L17.3695 10.5671C17.3695 12.4778 18.0229 14.0942 18.9434 14.9968L18.9477 15.0009C19.1709 15.224 19.3337 15.5423 19.3337 15.9051V16.8505C19.3337 17.5951 18.7099 18.1289 18.029 18.1289H1.97162C1.2776 18.1289 0.666992 17.5825 0.666992 16.8505V15.9051C0.666992 15.5423 0.829814 15.224 1.05298 15.001L1.05597 14.998C1.97268 14.0942 2.63115 12.4762 2.63115 10.5671L2.63115 10.5648C2.63257 10.1701 2.6321 9.77632 2.63162 9.38098L2.63162 9.38041C2.63138 9.18213 2.63115 8.98344 2.63115 8.784C2.63115 5.58832 4.83004 2.9232 7.8196 2.03557ZM7.92858 18.4751H9.99446H12.0603H13.3048C13.3048 20.2692 11.7886 21.6668 9.99446 21.6668C8.20032 21.6668 6.68414 20.2692 6.68414 18.4751H7.92858Z" fill="#FC9A45"/>
</svg>
